<svg height="512" viewBox="0 0 60 40" width="512" xmlns="http://www.w3.org/2000/svg"><g id="Page-1" fill="none" fill-rule="evenodd"><g id="007---Beret" fill="rgb(0,0,0)" fill-rule="nonzero"><path id="Shape" d="m54.238 9.871c-3.038-2.464-6.959-3.671-11.709-3.633.5786349-1.40543162 1.6046236-2.58080203 2.919-3.344.2868012-.14404938.487035-.41700209.5383202-.73382222.0512853-.31682013-.0526107-.63900386-.2793202-.86617778-1.23-1.231-4.137-1.294-4.707-1.294-.1555708-.00021174-.3090193.03609528-.448.106-2.923 1.466-3.967 4.659-4.343 6.836-.139.028-.275.05-.415.079-17.816 3.751-35.794 11.079-35.794 18.979 0 3.3.812 5.642 2.415 6.956.7366446.6023231 1.63721251.9695179 2.585 1.054v2.99c0 1.6568542 1.34314575 3 3 3h44c1.6568542 0 3-1.3431458 3-3v-3.152c2.987-.848 5-5.473 5-11.848-.0803275-4.6850725-2.1809891-9.1069614-5.762-12.129zm-12.996-7.871c.5924329.01896591 1.1823589.08585094 1.764.2-1.2456964 1.10483723-2.1562364 2.53717068-2.628 4.134-.6713333.056-1.357.13433333-2.057.235.3048173-1.85954165 1.3611337-3.51182169 2.921-4.569zm11.758 35c0 .5522847-.4477153 1-1 1h-44c-.55228475 0-1-.4477153-1-1v-3h46zm1-5h-5.323c1.985641-.9370282 3.5207142-2.620541 4.271-4.684.1128959-.3394023.0361471-.7132523-.201336-.9807242-.237483-.2674719-.599621-.3879304-.95-.316-.350379.0719305-.6357681.3253219-.748664.6647242-1.748 5.241-10.956 5.316-11.048 5.316h-10c-.173 0-4.237-.06-5.033-3.243-.1373346-.5320593-.6782442-.8536288-1.2112708-.7200974-.5330265.1335314-.8584506.6721308-.7287292 1.2060974.2584875 1.0579927.8221704 2.0167057 1.621 2.757h-5.648c-.065 0-6.479-.071-9.145-4.515-.28924015-.4622053-.89543155-.6075113-1.36278388-.3266637-.46735233.2808477-.62357974.8843167-.35121612 1.3566637.88311193 1.4451973 2.1169347 2.6439351 3.587 3.485h-5.728c-.03372033.0045596-.06711984.0112395-.1.02-.03330072-.0020854-.06669928-.0020854-.1 0-.76030069.0924603-1.52552716-.1280838-2.12-.611-1.098-.903-1.68-2.773-1.68-5.409 0-5.69 14.386-12.849 34.206-17.021 7.247-1.526 12.892-.7 16.773 2.445 3.1213208 2.6356779 4.9518005 6.4913149 5.021 10.576 0 5.514-1.794 10-4 10z"/></g></g></svg>